<?xml version="1.0" standalone="no"?><!DOCTYPE svg PUBLIC "-//W3C//DTD SVG 1.1//EN" "http://www.w3.org/Graphics/SVG/1.1/DTD/svg11.dtd"><svg t="1731404120476" class="icon" viewBox="0 0 1024 1024" version="1.1" xmlns="http://www.w3.org/2000/svg" p-id="1121" xmlns:xlink="http://www.w3.org/1999/xlink" width="200" height="200"><path d="M511.0784 513.6896m-436.2752 0a436.2752 436.2752 0 1 0 872.5504 0 436.2752 436.2752 0 1 0-872.5504 0Z" fill="#C5FFE6" p-id="1122"></path><path d="M819.2 481.28l-67.2768-66.9696V319.5392a45.7728 45.7728 0 0 0-45.7728-45.7728h-94.7712l-67.0208-67.0208a45.7728 45.7728 0 0 0-64.7168 0L412.6208 273.7664H317.8496a45.7728 45.7728 0 0 0-45.7728 45.7728v94.7712L205.056 481.28a45.7728 45.7728 0 0 0 0 64.7168l67.0208 67.0208v94.7712a45.7728 45.7728 0 0 0 45.7728 45.7728h94.7712l67.0208 67.0208a45.7728 45.7728 0 0 0 64.7168 0l67.0208-67.0208h94.7712a45.7728 45.7728 0 0 0 45.7728-45.7728v-94.72L819.2 546.048A45.7728 45.7728 0 0 0 819.2 481.28z" fill="#4FE99D" p-id="1123"></path><path d="M814.08 551.1168l-62.1568-62.0032V394.24a45.7728 45.7728 0 0 0-45.7728-45.7728h-94.7712L544.3584 281.6a45.7728 45.7728 0 0 0-64.7168 0L412.6208 348.5696H317.8496A45.7728 45.7728 0 0 0 272.0768 394.24v94.8736L209.92 551.1168l62.0032 61.952v94.7712a45.7728 45.7728 0 0 0 45.7728 45.7728h94.9248l67.0208 67.0208a45.7728 45.7728 0 0 0 64.7168 0l67.0208-67.0208h94.7712a45.7728 45.7728 0 0 0 45.7728-45.7728v-94.7712z" fill="#4EE5A1" p-id="1124"></path><path d="M749.1072 563.9168V469.1456a45.7728 45.7728 0 0 0-45.7728-45.7728h-94.7712L541.5424 356.352a45.7728 45.7728 0 0 0-64.7168 0L409.6 423.3728H315.0336a45.7728 45.7728 0 0 0-45.7728 45.7728v94.7712l-23.1936 23.1424 26.0096 26.0096v94.7712a45.7728 45.7728 0 0 0 45.7728 45.7728h94.7712l67.0208 67.0208a45.7728 45.7728 0 0 0 64.7168 0l67.0208-67.0208h94.7712a45.7728 45.7728 0 0 0 45.7728-45.7728v-94.7712l23.1424-23.1424z" fill="#45DDA3" p-id="1125"></path><path d="M751.9232 543.9488a45.7728 45.7728 0 0 0-45.7728-45.7728h-94.7712l-67.0208-67.0208a45.7728 45.7728 0 0 0-64.7168 0L412.6208 498.176H317.8496a45.7728 45.7728 0 0 0-45.7728 45.7728v163.84a45.7728 45.7728 0 0 0 45.7728 45.7728h94.7712l67.0208 67.0208a45.7728 45.7728 0 0 0 64.7168 0l67.0208-67.0208h94.7712a45.7728 45.7728 0 0 0 45.7728-45.7728v-163.84z" fill="#48D3A1" p-id="1126"></path><path d="M317.8496 753.6128h94.7712l67.0208 67.0208a45.7728 45.7728 0 0 0 64.7168 0l67.0208-67.0208h94.7712a45.7216 45.7216 0 0 0 45.056-37.9904l-2.0992-2.0992v-94.7712a45.7728 45.7728 0 0 0-45.7728-45.7728h-94.7712l-67.0208-67.0208a45.7728 45.7728 0 0 0-64.7168 0L409.6 572.9792H315.0336a45.7216 45.7216 0 0 0-45.056 37.9904l2.0992 2.0992v94.7712a45.7728 45.7728 0 0 0 45.7728 45.7728z" fill="#3ACC9B" p-id="1127"></path><path d="M479.5904 636.0576a42.3424 42.3424 0 0 1-32.256-14.848l-81.92-95.5904a30.72 30.72 0 1 1 46.592-39.9872l66.56 77.824 126.976-167.3728a30.72 30.72 0 1 1 48.9472 37.12l-140.9536 186.0096a42.5472 42.5472 0 0 1-32.6144 16.8448z" fill="#FFFFFF" p-id="1128"></path></svg>